# Blender v2.82 (sub 7) OBJ File: 'stairs.blend'
# www.blender.org
mtllib stairs.mtl
o stairs
v 4.455966 16.661407 -14.784180
v 15.277223 16.661407 -14.784180
v 15.277223 17.661407 -14.784180
v 4.455966 17.661407 -14.784180
v 15.277223 17.661407 -18.080437
v 4.455966 17.661407 -18.080437
v 15.277223 16.661407 -18.080437
v 4.455966 16.661407 -18.080437
v 4.455966 15.665016 -13.574959
v 15.277223 15.665016 -13.574959
v 15.277223 16.665016 -13.574959
v 4.455966 16.665016 -13.574959
v 15.277223 16.665016 -16.871216
v 4.455966 16.665016 -16.871216
v 15.277223 15.665016 -16.871216
v 4.455966 15.665016 -16.871216
v 4.455966 14.691064 -12.195541
v 15.277223 14.691064 -12.195541
v 15.277223 15.691064 -12.195541
v 4.455966 15.691064 -12.195541
v 15.277223 15.691064 -15.491798
v 4.455966 15.691064 -15.491798
v 15.277223 14.691064 -15.491798
v 4.455966 14.691064 -15.491798
v 4.455966 13.765731 -10.604187
v 15.277223 13.765731 -10.604187
v 15.277223 14.765731 -10.604187
v 4.455966 14.765731 -10.604187
v 15.277223 14.765732 -13.900444
v 4.455966 14.765732 -13.900444
v 15.277223 13.765732 -13.900444
v 4.455966 13.765732 -13.900444
v 4.455966 12.769341 -9.394974
v 15.277223 12.769341 -9.394974
v 15.277223 13.769341 -9.394974
v 4.455966 13.769341 -9.394974
v 15.277223 13.769341 -12.691231
v 4.455966 13.769341 -12.691231
v 15.277223 12.769341 -12.691231
v 4.455966 12.769341 -12.691231
v 4.455966 11.795388 -8.015549
v 15.277223 11.795388 -8.015549
v 15.277223 12.795388 -8.015549
v 4.455966 12.795388 -8.015549
v 15.277223 12.795388 -11.311813
v 4.455966 12.795388 -11.311813
v 15.277223 11.795388 -11.311813
v 4.455966 11.795388 -11.311813
v 4.455966 10.844383 -6.976295
v 15.277223 10.844383 -6.976295
v 15.277223 11.844383 -6.976295
v 4.455966 11.844383 -6.976295
v 15.277223 11.844383 -10.272552
v 4.455966 11.844383 -10.272552
v 15.277223 10.844383 -10.272552
v 4.455966 10.844383 -10.272552
v 4.455966 8.874040 -4.387657
v 15.277223 8.874040 -4.387657
v 15.277223 9.874040 -4.387657
v 4.455966 9.874040 -4.387657
v 15.277223 9.874041 -7.683914
v 4.455966 9.874041 -7.683914
v 15.277223 8.874041 -7.683914
v 4.455966 8.874041 -7.683914
v 4.455966 9.847991 -5.767075
v 15.277223 9.847991 -5.767075
v 15.277223 10.847991 -5.767075
v 4.455966 10.847991 -5.767075
v 15.277223 10.847991 -9.063332
v 4.455966 10.847991 -9.063332
v 15.277223 9.847991 -9.063332
v 4.455966 9.847991 -9.063332
v 4.455966 6.952316 -1.587090
v 15.277223 6.952316 -1.587090
v 15.277223 7.952316 -1.587090
v 4.455966 7.952316 -1.587090
v 15.277223 7.952317 -4.883347
v 4.455966 7.952317 -4.883347
v 15.277223 6.952317 -4.883347
v 4.455966 6.952317 -4.883347
v 4.455966 7.948707 -2.796303
v 15.277223 7.948707 -2.796303
v 15.277223 8.948708 -2.796303
v 4.455966 8.948708 -2.796303
v 15.277223 8.948709 -6.092560
v 4.455966 8.948709 -6.092560
v 15.277223 7.948708 -6.092560
v 4.455966 7.948708 -6.092560
v 4.455966 5.978364 -0.207664
v 15.277223 5.978364 -0.207664
v 15.277223 6.978364 -0.207664
v 4.455966 6.978364 -0.207664
v 15.277223 6.978364 -3.503922
v 4.455966 6.978364 -3.503922
v 15.277223 5.978364 -3.503922
v 4.455966 5.978364 -3.503922
v 4.455966 4.989861 1.492455
v 15.277223 4.989861 1.492455
v 15.277223 5.989861 1.492455
v 4.455966 5.989861 1.492455
v 15.277223 5.989861 -1.803802
v 4.455966 5.989861 -1.803802
v 15.277223 4.989861 -1.803802
v 4.455966 4.989861 -1.803802
v 4.455966 3.993469 2.701675
v 15.277223 3.993469 2.701675
v 15.277223 4.993469 2.701675
v 4.455966 4.993469 2.701675
v 15.277223 4.993470 -0.594582
v 4.455966 4.993470 -0.594582
v 15.277223 3.993470 -0.594582
v 4.455966 3.993470 -0.594582
v 4.455966 3.019517 4.081093
v 15.277223 3.019517 4.081093
v 15.277223 4.019517 4.081093
v 4.455966 4.019517 4.081093
v 15.277223 4.019518 0.784836
v 4.455966 4.019518 0.784836
v 15.277223 3.019518 0.784836
v 4.455966 3.019518 0.784836
v 4.455966 2.094185 5.672447
v 15.277223 2.094185 5.672447
v 15.277223 3.094185 5.672447
v 4.455966 3.094185 5.672447
v 15.277223 3.094185 2.376190
v 4.455966 3.094185 2.376190
v 15.277223 2.094185 2.376190
v 4.455966 2.094185 2.376190
v 4.455966 0.123841 8.261086
v 15.277223 0.123841 8.261086
v 15.277223 1.123842 8.261086
v 4.455966 1.123842 8.261086
v 15.277223 1.123842 4.964821
v 4.455966 1.123842 4.964821
v 15.277223 0.123842 4.964821
v 4.455966 0.123842 4.964821
v 4.455966 1.097794 6.881660
v 15.277223 1.097794 6.881660
v 15.277223 2.097794 6.881660
v 4.455966 2.097794 6.881660
v 15.277223 2.097794 3.585403
v 4.455966 2.097794 3.585403
v 15.277223 1.097794 3.585403
v 4.455966 1.097794 3.585403
v 4.635949 0.130381 6.429115
v 15.101087 0.130381 6.429115
v 15.202240 16.277517 -14.354317
v 4.737101 16.277517 -14.354317
v 15.202240 16.277517 -16.789864
v 4.737101 16.277517 -16.789864
v 15.202240 -0.269403 -16.789864
v 4.737101 -0.269403 -16.789864
vt 0.518272 0.782863
vt 0.518272 0.971686
vt 0.507873 0.971686
vt 0.507873 0.782863
vt 0.463758 0.971686
vt 0.463758 0.782863
vt 0.539275 0.405216
vt 0.539275 0.594039
vt 0.522327 0.594039
vt 0.522327 0.405216
vt 0.728396 0.871110
vt 0.728396 0.682287
vt 0.784261 0.682287
vt 0.784261 0.871110
vt 0.772176 0.435164
vt 0.772176 0.377647
vt 0.789124 0.377647
vt 0.789124 0.435165
vt 0.856917 0.435165
vt 0.856917 0.492682
vt 0.839969 0.492682
vt 0.839969 0.435165
vt 0.949155 0.682287
vt 0.949155 0.871110
vt 0.938757 0.871110
vt 0.938757 0.682287
vt 0.894641 0.871110
vt 0.894641 0.682287
vt 1.000000 0.304640
vt 1.000000 0.493463
vt 0.983052 0.493463
vt 0.983052 0.304640
vt 0.672530 0.871110
vt 0.672530 0.682287
vt 0.728396 0.682287
vt 0.728396 0.871110
vt 0.806073 0.492682
vt 0.806073 0.435165
vt 0.823021 0.435165
vt 0.823021 0.492682
vt 0.789124 0.492682
vt 0.789124 0.435165
vt 0.806073 0.435165
vt 0.806073 0.492682
vt 0.340906 0.693948
vt 0.340906 0.882772
vt 0.330508 0.882772
vt 0.330508 0.693948
vt 0.286392 0.882772
vt 0.286392 0.693948
vt 0.949155 0.871110
vt 0.949155 0.682287
vt 0.966103 0.682287
vt 0.966103 0.871110
vt 0.616664 0.682287
vt 0.616664 0.493463
vt 0.672530 0.493463
vt 0.672530 0.682287
vt 0.831970 0.928628
vt 0.831970 0.871110
vt 0.848918 0.871110
vt 0.848918 0.928628
vt 0.823021 0.377647
vt 0.823021 0.435165
vt 0.806073 0.435165
vt 0.806073 0.377647
vt 0.463758 0.782863
vt 0.463758 0.971686
vt 0.453359 0.971686
vt 0.453359 0.782863
vt 0.409243 0.971686
vt 0.409243 0.782863
vt 0.518272 0.971686
vt 0.518272 0.782863
vt 0.535220 0.782863
vt 0.535220 0.971686
vt 0.410595 0.594039
vt 0.410595 0.405216
vt 0.466461 0.405216
vt 0.466461 0.594039
vt 0.873866 0.492682
vt 0.873866 0.435165
vt 0.890814 0.435165
vt 0.890814 0.492682
vt 0.772176 0.492682
vt 0.772176 0.435165
vt 0.789124 0.435165
vt 0.789125 0.492682
vt 0.409243 0.782863
vt 0.409243 0.971686
vt 0.398845 0.971686
vt 0.398845 0.782863
vt 0.354729 0.971686
vt 0.354729 0.782863
vt 0.535220 0.971686
vt 0.535220 0.782863
vt 0.552168 0.782863
vt 0.552168 0.971686
vt 0.738280 0.188824
vt 0.738280 0.000000
vt 0.794145 0.000000
vt 0.794145 0.188824
vt 0.865867 0.871110
vt 0.865867 0.928628
vt 0.848918 0.928628
vt 0.848918 0.871110
vt 0.628592 0.871110
vt 0.628592 0.928628
vt 0.611643 0.928628
vt 0.611643 0.871110
vt 0.848660 0.000000
vt 0.848660 0.188823
vt 0.838261 0.188823
vt 0.838261 0.000000
vt 0.794145 0.188823
vt 0.794145 0.000000
vt 0.949155 0.682287
vt 0.949155 0.493463
vt 0.966104 0.493463
vt 0.966104 0.682287
vt 0.466461 0.594039
vt 0.466461 0.405216
vt 0.522327 0.405216
vt 0.522327 0.594039
vt 0.738280 0.492683
vt 0.738280 0.435165
vt 0.755228 0.435165
vt 0.755228 0.492683
vt 0.772176 0.435165
vt 0.772176 0.492682
vt 0.755228 0.492682
vt 0.755228 0.435165
vt 0.949155 0.493463
vt 0.949155 0.682287
vt 0.938757 0.682287
vt 0.938757 0.493463
vt 0.894641 0.682287
vt 0.894641 0.493463
vt 0.522327 0.782863
vt 0.522327 0.594039
vt 0.539275 0.594039
vt 0.539275 0.782863
vt 0.728396 0.682287
vt 0.728396 0.493463
vt 0.784261 0.493463
vt 0.784261 0.682287
vt 0.873866 0.435165
vt 0.873866 0.492682
vt 0.856917 0.492682
vt 0.856917 0.435165
vt 0.577747 0.928628
vt 0.577747 0.871110
vt 0.594695 0.871110
vt 0.594695 0.928628
vt 0.231878 0.693948
vt 0.231878 0.882772
vt 0.221480 0.882772
vt 0.221480 0.693948
vt 0.177364 0.882772
vt 0.177364 0.693948
vt 0.539275 0.594039
vt 0.539275 0.405216
vt 0.556223 0.405216
vt 0.556223 0.594039
vt 0.784261 0.682287
vt 0.784261 0.493463
vt 0.840127 0.493463
vt 0.840127 0.682287
vt 0.755228 0.435165
vt 0.755228 0.377647
vt 0.772176 0.377647
vt 0.772176 0.435165
vt 0.890814 0.377647
vt 0.890814 0.435165
vt 0.873866 0.435164
vt 0.873866 0.377647
vt 0.894641 0.682287
vt 0.894641 0.871110
vt 0.884243 0.871110
vt 0.884243 0.682287
vt 0.840127 0.871110
vt 0.840127 0.682287
vt 0.539275 0.782863
vt 0.539275 0.594039
vt 0.556223 0.594039
vt 0.556223 0.782863
vt 0.410595 0.782863
vt 0.410595 0.594039
vt 0.466461 0.594039
vt 0.466461 0.782863
vt 0.839969 0.435164
vt 0.839969 0.377647
vt 0.856917 0.377647
vt 0.856917 0.435165
vt 0.577747 0.871110
vt 0.577747 0.928628
vt 0.560799 0.928628
vt 0.560799 0.871110
vt 0.840127 0.682287
vt 0.840127 0.493463
vt 0.850525 0.493463
vt 0.850525 0.682287
vt 0.894641 0.493463
vt 0.894641 0.682287
vt 0.966104 0.682287
vt 0.966104 0.493463
vt 0.983052 0.493463
vt 0.983052 0.682287
vt 0.560799 0.682287
vt 0.560799 0.493463
vt 0.616664 0.493463
vt 0.616664 0.682287
vt 0.713333 0.928628
vt 0.713333 0.871110
vt 0.730281 0.871110
vt 0.730281 0.928627
vt 0.823021 0.435165
vt 0.823021 0.377647
vt 0.839969 0.377647
vt 0.839969 0.435165
vt 0.286392 0.693948
vt 0.286392 0.882772
vt 0.275994 0.882772
vt 0.275994 0.693948
vt 0.231878 0.882772
vt 0.231878 0.693948
vt 0.991584 0.000000
vt 0.991584 0.188824
vt 0.974636 0.188824
vt 0.974636 0.000000
vt 0.466461 0.782863
vt 0.466461 0.594039
vt 0.522327 0.594039
vt 0.522327 0.782863
vt 0.645540 0.871110
vt 0.645540 0.928628
vt 0.628592 0.928628
vt 0.628592 0.871110
vt 0.789124 0.435165
vt 0.789124 0.377647
vt 0.806073 0.377647
vt 0.806073 0.435165
vt 0.054514 1.000000
vt 0.054514 0.811176
vt 0.064912 0.811176
vt 0.064912 1.000000
vt 0.109028 0.811176
vt 0.109028 1.000000
vt 0.159873 1.000000
vt 0.159873 0.811176
vt 0.176821 0.811176
vt 0.176821 1.000000
vt 0.672530 0.682287
vt 0.672530 0.493463
vt 0.728396 0.493463
vt 0.728396 0.682287
vt 0.781126 0.871110
vt 0.781126 0.928628
vt 0.764177 0.928628
vt 0.764177 0.871110
vt 0.696384 0.928628
vt 0.696384 0.871110
vt 0.713333 0.871110
vt 0.713333 0.928628
vt 0.848660 0.188823
vt 0.848660 0.000000
vt 0.859058 0.000000
vt 0.859058 0.188823
vt 0.903174 0.000000
vt 0.903174 0.188823
vt 0.957688 0.188824
vt 0.957688 0.000000
vt 0.974636 0.000000
vt 0.974636 0.188824
vt 0.560799 0.871110
vt 0.560799 0.682287
vt 0.616664 0.682287
vt 0.616664 0.871110
vt 0.798074 0.871110
vt 0.798074 0.928628
vt 0.781126 0.928628
vt 0.781126 0.871110
vt 0.594695 0.928628
vt 0.594695 0.871110
vt 0.611643 0.871110
vt 0.611643 0.928628
vt 0.054514 0.811176
vt 0.054514 1.000000
vt 0.044116 1.000000
vt 0.044116 0.811176
vt 0.000000 1.000000
vt 0.000000 0.811176
vt 0.966103 0.871110
vt 0.966103 0.682287
vt 0.983052 0.682287
vt 0.983052 0.871110
vt 0.784261 0.871110
vt 0.784261 0.682287
vt 0.840127 0.682287
vt 0.840127 0.871110
vt 0.823021 0.492682
vt 0.823021 0.435165
vt 0.839969 0.435165
vt 0.839969 0.492682
vt 0.679436 0.871110
vt 0.679436 0.928628
vt 0.662488 0.928628
vt 0.662488 0.871110
vt 0.848660 0.377647
vt 0.848660 0.188823
vt 0.859058 0.188823
vt 0.859058 0.377647
vt 0.903174 0.188823
vt 0.903174 0.377647
vt 0.966104 0.493463
vt 0.966104 0.304640
vt 0.983052 0.304640
vt 0.983052 0.493463
vt 0.354729 0.782863
vt 0.354729 0.594039
vt 0.410595 0.594039
vt 0.410595 0.782863
vt 0.764177 0.871110
vt 0.764177 0.928628
vt 0.747229 0.928628
vt 0.747229 0.871110
vt 0.679436 0.928628
vt 0.679436 0.871110
vt 0.696384 0.871110
vt 0.696384 0.928628
vt 0.957688 0.188823
vt 0.957688 0.377647
vt 0.947290 0.377647
vt 0.947290 0.188823
vt 0.903174 0.377647
vt 0.903174 0.188823
vt 0.109028 1.000000
vt 0.109028 0.811176
vt 0.125976 0.811176
vt 0.125976 1.000000
vt 0.616664 0.871110
vt 0.616664 0.682287
vt 0.672530 0.682287
vt 0.672530 0.871110
vt 0.815022 0.928627
vt 0.815022 0.871110
vt 0.831970 0.871110
vt 0.831970 0.928628
vt 0.747229 0.871110
vt 0.747229 0.928628
vt 0.730281 0.928628
vt 0.730281 0.871110
vt 0.848660 0.188824
vt 0.848660 0.377647
vt 0.838262 0.377647
vt 0.838262 0.188824
vt 0.794145 0.377647
vt 0.794145 0.188824
vt 0.142924 1.000000
vt 0.142924 0.811176
vt 0.159873 0.811176
vt 0.159873 1.000000
vt 0.354729 0.594039
vt 0.354729 0.405216
vt 0.410595 0.405216
vt 0.410595 0.594039
vt 0.873866 0.377647
vt 0.873866 0.435165
vt 0.856917 0.435165
vt 0.856917 0.377647
vt 0.738280 0.435165
vt 0.738280 0.377647
vt 0.755228 0.377647
vt 0.755228 0.435165
vt 0.957688 0.000000
vt 0.957688 0.188823
vt 0.947290 0.188823
vt 0.947290 0.000000
vt 0.903174 0.188823
vt 0.903174 0.000000
vt 0.125976 1.000000
vt 0.125976 0.811176
vt 0.142924 0.811176
vt 0.142924 1.000000
vt 0.738280 0.377647
vt 0.738280 0.188824
vt 0.794145 0.188824
vt 0.794145 0.377647
vt 0.815022 0.871110
vt 0.815022 0.928628
vt 0.798074 0.928628
vt 0.798074 0.871110
vt 0.645540 0.928628
vt 0.645540 0.871110
vt 0.662488 0.871110
vt 0.662488 0.928628
vt 0.738280 0.493463
vt 0.560915 0.492809
vt 0.560799 0.033560
vt 0.738163 0.034214
vt 0.560915 0.000000
vt 0.738280 0.000654
vt 0.177364 0.405216
vt 0.354729 0.405216
vt 0.354729 0.693948
vt 0.177364 0.693948
vt 0.177364 0.810381
vt 0.000000 0.811176
vt 0.000000 0.406011
vt 0.177364 0.405216
vt 0.280399 0.000000
vt 0.280399 0.405216
vt 0.000000 0.400245
vt 0.000711 0.357753
vt 0.560799 0.000000
vt 0.560799 0.405216
vt 0.281110 0.047463
vt 0.280399 0.004971
vn 0.0000 0.0000 1.0000
vn 0.0000 1.0000 0.0000
vn 0.0000 0.0000 -1.0000
vn 0.0000 -1.0000 0.0000
vn 1.0000 0.0000 0.0000
vn -1.0000 0.0000 0.0000
vn 0.0000 0.7897 0.6135
vn 0.0000 -0.9999 0.0172
vn 1.0000 -0.0006 0.0040
vn -1.0000 0.0006 -0.0040
usemtl initialShadingGroup
s 1
f 1/1/1 2/2/1 3/3/1 4/4/1
f 4/4/2 3/3/2 5/5/2 6/6/2
f 6/7/3 5/8/3 7/9/3 8/10/3
f 8/11/4 7/12/4 2/13/4 1/14/4
f 2/15/5 7/16/5 5/17/5 3/18/5
f 8/19/6 1/20/6 4/21/6 6/22/6
f 9/23/1 10/24/1 11/25/1 12/26/1
f 12/26/2 11/25/2 13/27/2 14/28/2
f 14/29/3 13/30/3 15/31/3 16/32/3
f 16/33/4 15/34/4 10/35/4 9/36/4
f 10/37/5 15/38/5 13/39/5 11/40/5
f 16/41/6 9/42/6 12/43/6 14/44/6
f 17/45/1 18/46/1 19/47/1 20/48/1
f 20/48/2 19/47/2 21/49/2 22/50/2
f 22/51/3 21/52/3 23/53/3 24/54/3
f 24/55/4 23/56/4 18/57/4 17/58/4
f 18/59/5 23/60/5 21/61/5 19/62/5
f 24/63/6 17/64/6 20/65/6 22/66/6
f 25/67/1 26/68/1 27/69/1 28/70/1
f 28/70/2 27/69/2 29/71/2 30/72/2
f 30/73/3 29/74/3 31/75/3 32/76/3
f 32/77/4 31/78/4 26/79/4 25/80/4
f 26/81/5 31/82/5 29/83/5 27/84/5
f 32/85/6 25/86/6 28/87/6 30/88/6
f 33/89/1 34/90/1 35/91/1 36/92/1
f 36/92/2 35/91/2 37/93/2 38/94/2
f 38/95/3 37/96/3 39/97/3 40/98/3
f 40/99/4 39/100/4 34/101/4 33/102/4
f 34/103/5 39/104/5 37/105/5 35/106/5
f 40/107/6 33/108/6 36/109/6 38/110/6
f 41/111/1 42/112/1 43/113/1 44/114/1
f 44/114/2 43/113/2 45/115/2 46/116/2
f 46/117/3 45/118/3 47/119/3 48/120/3
f 48/121/4 47/122/4 42/123/4 41/124/4
f 42/125/5 47/126/5 45/127/5 43/128/5
f 48/129/6 41/130/6 44/131/6 46/132/6
f 49/133/1 50/134/1 51/135/1 52/136/1
f 52/136/2 51/135/2 53/137/2 54/138/2
f 54/139/3 53/140/3 55/141/3 56/142/3
f 56/143/4 55/144/4 50/145/4 49/146/4
f 50/147/5 55/148/5 53/149/5 51/150/5
f 56/151/6 49/152/6 52/153/6 54/154/6
f 57/155/1 58/156/1 59/157/1 60/158/1
f 60/158/2 59/157/2 61/159/2 62/160/2
f 62/161/3 61/162/3 63/163/3 64/164/3
f 64/165/4 63/166/4 58/167/4 57/168/4
f 58/169/5 63/170/5 61/171/5 59/172/5
f 64/173/6 57/174/6 60/175/6 62/176/6
f 65/177/1 66/178/1 67/179/1 68/180/1
f 68/180/2 67/179/2 69/181/2 70/182/2
f 70/183/3 69/184/3 71/185/3 72/186/3
f 72/187/4 71/188/4 66/189/4 65/190/4
f 66/191/5 71/192/5 69/193/5 67/194/5
f 72/195/6 65/196/6 68/197/6 70/198/6
f 73/199/1 74/200/1 75/201/1 76/202/1
f 76/202/2 75/201/2 77/203/2 78/204/2
f 78/205/3 77/206/3 79/207/3 80/208/3
f 80/209/4 79/210/4 74/211/4 73/212/4
f 74/213/5 79/214/5 77/215/5 75/216/5
f 80/217/6 73/218/6 76/219/6 78/220/6
f 81/221/1 82/222/1 83/223/1 84/224/1
f 84/224/2 83/223/2 85/225/2 86/226/2
f 86/227/3 85/228/3 87/229/3 88/230/3
f 88/231/4 87/232/4 82/233/4 81/234/4
f 82/235/5 87/236/5 85/237/5 83/238/5
f 88/239/6 81/240/6 84/241/6 86/242/6
f 89/243/1 90/244/1 91/245/1 92/246/1
f 92/246/2 91/245/2 93/247/2 94/248/2
f 94/249/3 93/250/3 95/251/3 96/252/3
f 96/253/4 95/254/4 90/255/4 89/256/4
f 90/257/5 95/258/5 93/259/5 91/260/5
f 96/261/6 89/262/6 92/263/6 94/264/6
f 97/265/1 98/266/1 99/267/1 100/268/1
f 100/268/2 99/267/2 101/269/2 102/270/2
f 102/271/3 101/272/3 103/273/3 104/274/3
f 104/275/4 103/276/4 98/277/4 97/278/4
f 98/279/5 103/280/5 101/281/5 99/282/5
f 104/283/6 97/284/6 100/285/6 102/286/6
f 105/287/1 106/288/1 107/289/1 108/290/1
f 108/290/2 107/289/2 109/291/2 110/292/2
f 110/293/3 109/294/3 111/295/3 112/296/3
f 112/297/4 111/298/4 106/299/4 105/300/4
f 106/301/5 111/302/5 109/303/5 107/304/5
f 112/305/6 105/306/6 108/307/6 110/308/6
f 113/309/1 114/310/1 115/311/1 116/312/1
f 116/312/2 115/311/2 117/313/2 118/314/2
f 118/315/3 117/316/3 119/317/3 120/318/3
f 120/319/4 119/320/4 114/321/4 113/322/4
f 114/323/5 119/324/5 117/325/5 115/326/5
f 120/327/6 113/328/6 116/329/6 118/330/6
f 121/331/1 122/332/1 123/333/1 124/334/1
f 124/334/2 123/333/2 125/335/2 126/336/2
f 126/337/3 125/338/3 127/339/3 128/340/3
f 128/341/4 127/342/4 122/343/4 121/344/4
f 122/345/5 127/346/5 125/347/5 123/348/5
f 128/349/6 121/350/6 124/351/6 126/352/6
f 129/353/1 130/354/1 131/355/1 132/356/1
f 132/356/2 131/355/2 133/357/2 134/358/2
f 134/359/3 133/360/3 135/361/3 136/362/3
f 136/363/4 135/364/4 130/365/4 129/366/4
f 130/367/5 135/368/5 133/369/5 131/370/5
f 136/371/6 129/372/6 132/373/6 134/374/6
f 137/375/1 138/376/1 139/377/1 140/378/1
f 140/378/2 139/377/2 141/379/2 142/380/2
f 142/381/3 141/382/3 143/383/3 144/384/3
f 144/385/4 143/386/4 138/387/4 137/388/4
f 138/389/5 143/390/5 141/391/5 139/392/5
f 144/393/6 137/394/6 140/395/6 142/396/6
f 145/397/7 146/398/7 147/399/7 148/400/7
f 148/400/2 147/399/2 149/401/2 150/402/2
f 150/403/3 149/404/3 151/405/3 152/406/3
f 152/407/8 151/408/8 146/409/8 145/410/8
f 146/411/9 151/412/9 149/413/9 147/414/9
f 152/415/10 145/416/10 148/417/10 150/418/10
