# Blender v2.83.0 OBJ File: ''
# www.blender.org
mtllib window.mtl
o obj_0
v 1.024834 31.788876 -11.996453
v 1.951614 -1.198110 -11.994649
v -3.046406 -1.338531 -12.004379
v -3.973185 31.648453 -12.006184
v -4.021852 31.648453 12.993769
v -3.095074 -1.338531 12.995573
v 1.902943 -1.198110 13.005302
v 0.976162 31.788876 13.003498
v 1.498371 14.795578 -9.995527
v 1.456245 16.294987 -9.995609
v 1.438725 16.294987 -0.995626
v 1.480850 14.795578 -0.995544
v 1.863525 1.798707 -9.996817
v 1.457485 14.795578 11.006432
v 1.475010 14.795578 2.004450
v 1.432884 16.294987 2.004368
v 1.415359 16.294987 11.006350
v -3.152073 1.660285 -1.004564
v -3.157913 1.660285 1.995430
v -3.523008 14.655157 1.994720
v -3.565134 16.154566 1.994637
v -3.559294 16.154566 -1.005357
v -3.944271 29.649240 1.993899
v -3.938431 29.649240 -1.006095
v -3.517168 14.655157 -1.005275
v 1.077057 29.791660 -9.998348
v 1.036167 29.791660 11.005611
v -3.175381 1.658286 10.997414
v -3.134491 1.658286 -10.006547
v 1.840107 1.800706 2.005160
v 1.845947 1.800706 -0.994834
v 1.059589 29.789661 -0.996365
v 1.053749 29.789661 2.003630
v -3.499647 14.655157 -10.005258
v -3.920961 29.651239 -10.008078
v -3.541773 16.154566 -10.005340
v 1.822636 1.798707 11.007143
v -3.961851 29.651239 10.995882
v -3.582659 16.154566 10.996620
v -3.540533 14.655157 10.996702
v -1.010784 15.225170 -12.000416
v 1.488224 15.295382 -11.995551
v -0.547394 -1.268321 -11.999514
v -1.474174 31.718662 -12.001318
v -3.509796 15.154961 -12.005281
v -1.059456 15.225170 12.999537
v -3.558464 15.154961 12.994671
v -0.596066 -1.268321 13.000439
v -1.522846 31.718662 12.998634
v 1.439552 15.295382 13.004400
v 1.000500 31.788876 0.503523
v -1.498508 31.718662 0.498658
v -3.997519 31.648453 0.493793
v -3.070740 -1.338531 0.495597
v -0.571728 -1.268321 0.500463
v 1.927280 -1.198110 0.505327
v 1.468552 15.545282 -5.495577
v 1.477310 15.545282 -9.995568
v 1.447487 16.294987 -5.495618
v 1.489613 14.795578 -5.495536
v 1.459789 15.545282 -0.995585
v 1.907570 0.300299 -10.995733
v 1.883236 0.300299 1.504243
v 1.445187 15.545282 6.505398
v 1.466248 14.795578 6.505438
v 1.453949 15.545282 2.004409
v 1.436424 15.545282 11.006392
v 1.424122 16.294987 6.505356
v -3.337540 8.157722 0.495077
v -3.154993 1.660285 0.495433
v -3.340460 8.157722 1.995074
v -3.544071 15.404861 1.994678
v -3.562214 16.154566 0.494640
v -3.541151 15.404861 0.494681
v -3.754702 22.901903 1.994268
v -3.941351 29.649240 0.493902
v -3.751781 22.901903 0.494271
v -3.748861 22.901903 -1.005726
v -3.538231 15.404861 -1.005316
v -3.520088 14.655157 0.494722
v -3.334620 8.157722 -1.004920
v 1.050945 30.790268 -10.997400
v 1.026611 30.790268 1.502575
v 1.006165 30.790268 12.004555
v 1.056614 29.791660 0.503633
v -3.135229 0.159877 11.996492
v -3.154936 1.658286 0.495433
v -3.114784 0.159877 1.494513
v 1.660480 8.298143 0.504807
v 1.843029 1.800706 0.505163
v 1.663399 8.298143 -0.995190
v 1.435806 16.294987 0.504371
v 1.456871 15.545282 0.504412
v 1.249157 23.042324 -0.995996
v 1.056671 29.789661 0.503633
v 1.246239 23.042324 0.504002
v 1.243317 23.042324 2.003999
v 1.477932 14.795578 0.504453
v 1.657558 8.298143 2.004805
v -1.255692 22.972113 1.999134
v -1.445259 29.719450 1.998765
v -1.066124 16.224775 1.999503
v -1.009396 14.725367 -5.500401
v -1.000637 14.725367 -10.000393
v -3.508408 14.655157 -5.505267
v -1.018158 14.725367 -1.000409
v -3.947073 30.649845 -11.007131
v -3.971409 30.649845 1.492845
v -1.021698 15.475071 -10.000434
v -1.042763 16.224775 -10.000475
v -3.520710 15.404861 -10.005299
v -0.841450 8.227932 1.999940
v -1.023998 14.725367 1.999585
v -0.658901 1.730496 2.000296
v 1.862789 0.300299 12.006222
v 1.640060 8.297144 11.006788
v 1.680214 6.798734 12.005867
v 1.216824 23.292225 12.004965
v 1.195763 24.041929 12.004923
v 1.225761 23.043324 11.005981
v -3.802258 23.901508 11.995193
v -3.991854 30.649845 11.994825
v -3.772255 22.902903 10.996252
v -3.781193 23.151804 11.995235
v -3.561596 15.404861 10.996662
v -3.357956 8.156721 10.997059
v -3.317804 6.658313 11.996138
v -1.249851 22.972113 -1.000860
v -1.439419 29.719450 -1.001229
v -1.060284 16.224775 -1.000491
v -3.941406 29.651239 0.493903
v -1.421951 29.721449 -10.003213
v -1.442394 29.721449 0.498769
v 1.444180 16.793791 -10.996635
v 1.470291 15.795183 -9.997582
v 1.843082 1.798707 0.505164
v -3.090448 0.159877 -11.005463
v -3.553837 16.653370 -11.006365
v -3.527727 15.654762 -10.007313
v -0.635483 1.728497 -10.001682
v -1.028717 15.724972 -10.002447
v -0.835609 8.227932 -1.000054
v -0.653061 1.730496 -0.999699
v -1.442337 29.719450 0.498768
v -3.529470 15.404861 -5.505308
v -3.550533 16.154566 -5.505349
v -1.462841 29.721449 11.000748
v -1.051521 16.224775 -5.500484
v -3.552834 15.404861 6.495668
v -3.573896 16.154566 6.495626
v -3.531771 14.655157 6.495708
v -1.074886 16.224775 6.500492
v -1.083649 16.224775 11.001486
v -1.273247 22.973112 11.001118
v -0.655979 1.730496 0.500299
v -0.858948 8.226933 11.001925
v -1.041523 14.725367 11.001568
v -0.676373 1.728497 11.002279
v -0.655926 1.728497 0.500299
v -1.032761 14.725367 6.500574
vt 0.916666 0.000000
vt 0.916666 0.270474
vt 0.875000 0.270474
vt 0.875000 0.000000
vt 1.000000 0.000000
vt 1.000000 0.270474
vt 0.958333 0.270474
vt 0.958333 0.000000
vt 0.083333 0.540948
vt 0.125000 0.745853
vt 0.083333 0.745853
vt 0.166667 0.540948
vt 0.166667 0.745853
vt 0.125000 0.540948
vt 0.250000 0.540948
vt 0.250000 0.745853
vt 0.208333 0.540948
vt 0.166667 0.950757
vt 0.166667 0.745853
vt 0.208333 0.950757
vt 0.450000 0.278670
vt 0.450000 0.266376
vt 0.525000 0.266376
vt 0.525000 0.278670
vt 0.416667 0.540948
vt 0.433317 0.516376
vt 0.625000 0.540948
vt 0.800033 0.278670
vt 0.725016 0.278670
vt 0.725016 0.266376
vt 0.800033 0.266376
vt 0.233333 0.491771
vt 0.208333 0.491771
vt 0.208333 0.385221
vt 0.183333 0.254082
vt 0.208333 0.254082
vt 0.183333 0.266376
vt 0.183333 0.032785
vt 0.208333 0.032785
vt 0.183333 0.143433
vt 0.233333 0.032785
vt 0.233333 0.143433
vt 0.208333 0.143433
vt 0.233333 0.254082
vt 0.233333 0.266376
vt 0.208333 0.266376
vt 0.233333 0.385221
vt 0.416667 0.000000
vt 0.625000 0.000000
vt 0.433317 0.016376
vt 0.800033 0.032752
vt 0.625000 0.032752
vt 0.816683 0.016376
vt 0.033300 0.491804
vt 0.208333 0.491804
vt 0.016650 0.516376
vt 0.650000 0.491771
vt 0.625000 0.491771
vt 0.625000 0.385221
vt 0.600000 0.254082
vt 0.625000 0.254082
vt 0.600000 0.266376
vt 0.600000 0.032785
vt 0.625000 0.032785
vt 0.600000 0.143433
vt 0.650000 0.032785
vt 0.650000 0.143433
vt 0.625000 0.143433
vt 0.650000 0.254082
vt 0.650000 0.266376
vt 0.625000 0.266376
vt 0.650000 0.385221
vt 0.583333 0.540948
vt 0.625000 0.540948
vt 0.625000 0.651597
vt 0.583333 0.651597
vt 0.500000 0.762245
vt 0.541667 0.762245
vt 0.541667 0.836011
vt 0.500000 0.836011
vt 0.416666 0.000000
vt 0.400016 0.016376
vt 0.208333 0.000000
vt 0.616667 0.844207
vt 0.604167 0.844207
vt 0.604167 0.803226
vt 0.616667 0.803226
vt 0.750000 0.754082
vt 0.791667 0.754082
vt 0.791667 0.860632
vt 0.750000 0.860632
vt 0.800033 0.491804
vt 0.800033 0.385237
vt 0.816683 0.516376
vt 0.833333 0.000000
vt 0.833333 0.270474
vt 0.816683 0.139335
vt 0.816683 0.127041
vt 0.000000 0.000000
vt 0.016650 0.016376
vt 0.016650 0.127041
vt 0.016650 0.139335
vt 0.033300 0.385237
vt 0.000000 0.270474
vt 0.583333 0.762245
vt 0.541667 0.762245
vt 0.541667 0.651597
vt 0.583333 0.651597
vt 0.333333 0.540948
vt 0.375000 0.540948
vt 0.333333 0.713101
vt 0.433317 0.245902
vt 0.625000 0.491804
vt 0.416667 0.270474
vt 0.000000 0.540948
vt 0.191683 0.516376
vt 0.208333 0.540948
vt 0.416667 0.270474
vt 0.400017 0.245902
vt 0.033300 0.032752
vt 0.208333 0.032752
vt 0.000000 0.540948
vt 0.041667 0.540948
vt 0.000000 0.770474
vt 0.083333 1.000000
vt 0.041667 1.000000
vt 0.083333 0.770474
vt 0.666667 0.754082
vt 0.708333 0.754082
vt 0.708333 0.860632
vt 0.666667 0.860632
vt 0.466667 0.844240
vt 0.441667 0.844240
vt 0.441667 0.803259
vt 0.466666 0.803259
vt 0.383333 0.254082
vt 0.383333 0.266376
vt 0.308333 0.266376
vt 0.308333 0.254082
vt 0.333333 0.885253
vt 0.375000 0.713101
vt 0.375000 0.885253
vt 0.833333 0.754082
vt 0.875000 0.754082
vt 0.875000 0.827847
vt 0.833333 0.827847
vt 0.033300 0.254082
vt 0.108317 0.254082
vt 0.108317 0.266376
vt 0.033300 0.266376
vt 0.750000 0.606518
vt 0.791667 0.606518
vt 0.791667 0.680300
vt 0.750000 0.680300
vt 0.416667 0.540948
vt 0.458333 0.540948
vt 0.458333 0.651613
vt 0.416667 0.651613
vt 0.616667 0.762245
vt 0.641667 0.762245
vt 0.641667 0.803226
vt 0.616667 0.803226
vt 0.750000 0.754082
vt 0.708333 0.754082
vt 0.708333 0.647515
vt 0.750000 0.647515
vt 0.250000 0.540948
vt 0.291667 0.540948
vt 0.250000 0.713101
vt 0.916667 0.754082
vt 0.875000 0.754082
vt 0.875000 0.680300
vt 0.916667 0.680300
vt 0.250000 0.885253
vt 0.291667 0.713101
vt 0.291667 0.885253
vt 0.333333 0.713101
vt 0.333333 0.885253
vt 0.333333 0.540948
vt 0.875000 0.606518
vt 0.916667 0.606518
vt 0.833333 0.606518
vt 0.833333 0.680300
vt 0.833333 0.754082
vt 0.708333 0.540948
vt 0.750000 0.540948
vt 0.666667 0.540948
vt 0.666667 0.647515
vt 0.666667 0.754082
vt 0.641667 0.844207
vt 0.616667 0.844207
vt 0.666667 0.844207
vt 0.666667 0.803226
vt 0.666667 0.762245
vt 0.458333 0.762278
vt 0.416667 0.762278
vt 0.500000 0.762278
vt 0.500000 0.651613
vt 0.500000 0.540948
vt 0.791667 0.754082
vt 0.750000 0.754082
vt 0.833333 0.754082
vt 0.833333 0.680300
vt 0.833333 0.606518
vt 0.108317 0.278670
vt 0.033300 0.278670
vt 0.183333 0.278670
vt 0.875000 0.901613
vt 0.833333 0.901613
vt 0.916667 0.901613
vt 0.916667 0.827847
vt 0.916667 0.754082
vt 0.416667 0.713101
vt 0.416667 0.885253
vt 0.416667 0.540948
vt 0.233333 0.278670
vt 0.308333 0.278670
vt 0.383333 0.278670
vt 0.441667 0.762278
vt 0.466667 0.762278
vt 0.416667 0.762278
vt 0.416667 0.803259
vt 0.416667 0.844240
vt 0.708333 0.967182
vt 0.666667 0.967182
vt 0.750000 0.967182
vt 0.750000 0.860632
vt 0.750000 0.754082
vt 0.041667 0.770474
vt 0.083333 0.540948
vt 0.000000 1.000000
vt 0.191683 0.016376
vt 0.383366 0.032752
vt 0.383367 0.262278
vt 0.383367 0.491804
vt 0.400017 0.516376
vt 0.416667 0.540948
vt 0.449967 0.491804
vt 0.641650 0.516376
vt 0.833333 0.540948
vt 0.449967 0.262278
vt 0.449967 0.032752
vt 0.541667 0.540948
vt 0.583333 0.540948
vt 0.500000 0.540948
vt 0.500000 0.651597
vt 0.500000 0.762245
vt 0.016650 0.409809
vt 0.033300 0.143417
vt 0.800033 0.143417
vt 0.800033 0.254082
vt 0.816683 0.409809
vt 0.791667 0.967183
vt 0.750000 0.967183
vt 0.833333 0.967183
vt 0.833333 0.860632
vt 0.833333 0.754082
vt 0.604167 0.762245
vt 0.616667 0.762245
vt 0.591667 0.762245
vt 0.591667 0.803226
vt 0.591667 0.844207
vt 0.541667 0.909776
vt 0.500000 0.909776
vt 0.583333 0.909776
vt 0.583333 0.836011
vt 0.583333 0.762245
vt 0.625000 0.762245
vt 0.583333 0.762245
vt 0.666667 0.762245
vt 0.666667 0.651597
vt 0.666667 0.540948
vt 0.625000 0.278670
vt 0.650000 0.278670
vt 0.600000 0.278670
vt 0.600000 0.385221
vt 0.600000 0.491771
vt 0.641650 0.016376
vt 0.208333 0.278670
vt 0.183333 0.385221
vt 0.183333 0.491771
vt 0.725016 0.254082
vt 0.525000 0.254082
vt 0.450000 0.254082
vt 0.208333 0.745853
vt 0.250000 0.950757
vt 0.166667 0.540948
vt 0.166667 0.950757
vt 0.125000 0.950757
vt 0.083333 0.950757
vt 0.916667 0.270474
vt 0.916667 0.000000
vt 0.916667 0.540948
vt 0.958333 0.540948
vt 1.000000 0.540948
vt 0.833333 0.270474
vt 0.833333 0.000000
vt 0.833333 0.540948
vt 0.875000 0.540948
vt 0.916667 0.540948
vn 0.5620 0.5933 -0.5763
vn 0.7082 0.0198 -0.7057
vn 0.0019 0.0000 -1.0000
vn -0.0185 0.7068 -0.7071
vn -0.5944 0.5609 0.5762
vn -0.7082 -0.0198 0.7057
vn -0.0019 0.0000 1.0000
vn -0.0212 0.7068 0.7071
vn -0.0281 0.9996 -0.0000
vn 0.6869 0.7267 0.0013
vn -0.5922 0.5609 -0.5785
vn -0.7267 0.6869 -0.0014
vn -0.5620 -0.5933 0.5763
vn -0.6869 -0.7267 -0.0013
vn 0.0185 -0.7068 0.7071
vn 0.5944 -0.5609 -0.5762
vn 0.7267 -0.6869 0.0014
vn 0.0212 -0.7068 -0.7071
vn 0.9996 0.0281 0.0019
vn 0.9132 -0.2760 -0.2997
vn 0.9996 0.0281 0.0020
vn -0.5598 -0.5933 -0.5784
vn -0.9996 -0.0281 -0.0019
vn -0.9132 0.2760 0.2997
vn -0.7054 -0.0198 -0.7085
vn -0.9120 0.2760 -0.3033
vn 0.5922 -0.5609 0.5785
vn 0.8963 0.3268 -0.2998
vn 0.5598 0.5933 0.5784
vn 0.7054 0.0198 0.7085
vn 0.8951 0.3268 0.3032
vn 0.0281 -0.9996 0.0000
vn 0.9120 -0.2760 0.3033
vn -0.8963 -0.3268 0.2998
vn -0.8951 -0.3268 -0.3032
usemtl color_15277357
s 1
f 1/1/1 42/2/2 41/3/3
f 1/1/1 41/3/3 44/4/4
f 5/5/5 47/6/6 46/7/7
f 5/5/5 46/7/7 49/8/8
f 1/9/1 52/10/9 51/11/10
f 4/12/11 53/13/12 44/14/4
f 6/15/13 54/16/14 48/17/15
f 2/18/16 56/19/17 43/20/18
f 9/21/16 58/22/2 57/23/19
f 9/21/16 57/23/19 60/24/17
f 2/25/16 62/26/19 56/27/17
f 14/28/20 65/29/17 64/30/19
f 14/28/20 64/30/19 67/31/21
f 18/32/22 70/33/14 69/34/23
f 21/35/24 73/36/23 72/37/23
f 23/38/5 76/39/12 75/40/6
f 24/41/11 78/42/25 77/43/23
f 22/44/26 79/45/23 74/46/23
f 18/32/22 69/34/23 81/47/25
f 1/48/1 51/49/10 82/50/19
f 27/51/20 85/52/17 84/53/19
f 28/54/26 87/55/12 86/56/23
f 30/57/27 90/58/17 89/59/19
f 11/60/28 92/61/19 61/62/19
f 32/63/1 95/64/10 94/65/2
f 33/66/29 97/67/30 96/68/19
f 16/69/31 66/70/19 93/71/19
f 30/57/27 89/59/19 99/72/30
f 33/73/29 101/74/8 100/75/7
f 33/73/29 100/75/7 97/76/30
f 34/77/22 104/78/18 103/79/32
f 34/77/22 103/79/32 105/80/14
f 4/81/11 107/82/23 53/83/12
f 10/84/1 58/85/2 109/86/3
f 10/84/1 109/86/3 110/87/4
f 15/88/33 113/89/15 112/90/7
f 15/88/33 112/90/7 99/91/30
f 37/92/28 116/93/2 115/94/19
f 8/95/29 50/96/30 118/97/21
f 8/95/29 118/97/21 119/98/21
f 8/95/29 119/98/21 84/53/19
f 5/99/5 122/100/23 121/101/23
f 5/99/5 121/101/23 124/102/23
f 28/54/26 86/56/23 126/103/25
f 5/99/5 124/102/23 47/104/6
f 24/105/11 129/106/4 128/107/3
f 24/105/11 128/107/3 78/108/25
f 35/109/34 132/110/15 131/111/14
f 1/48/1 82/50/19 134/112/19
f 37/92/28 115/94/19 136/113/10
f 1/48/1 134/112/19 42/114/2
f 6/115/13 88/116/23 54/117/14
f 4/81/11 45/118/25 138/119/23
f 4/81/11 138/119/23 107/82/23
f 38/120/35 122/100/23 131/121/14
f 29/122/24 140/123/8 139/124/6
f 26/125/33 132/126/15 135/127/30
f 25/128/35 106/129/18 142/130/3
f 25/128/35 142/130/3 81/131/25
f 24/132/11 76/133/12 144/134/9
f 24/132/11 144/134/9 129/135/4
f 36/136/11 111/137/25 145/138/23
f 36/136/11 145/138/23 146/139/12
f 38/140/35 133/141/32 147/142/18
f 10/143/1 110/144/4 148/145/9
f 10/143/1 148/145/9 59/146/10
f 39/147/26 150/148/12 149/149/23
f 39/147/26 149/149/23 125/150/23
f 16/151/31 102/152/8 152/153/9
f 16/151/31 152/153/9 68/154/10
f 38/155/35 147/156/18 154/157/3
f 38/155/35 154/157/3 123/158/25
f 31/159/16 90/160/17 155/161/32
f 31/159/16 155/161/32 143/162/18
f 40/163/35 157/164/18 156/165/3
f 40/163/35 156/165/3 126/166/25
f 13/167/31 140/168/8 136/169/10
f 20/170/34 113/171/15 160/172/32
f 20/170/34 160/172/32 151/173/14
f 37/174/28 159/175/9 158/176/4
f 158/176/4 87/177/12 28/178/26
f 158/176/4 159/175/9 87/177/12
f 159/175/9 29/179/24 87/177/12
f 151/173/14 157/180/18 40/181/35
f 151/173/14 160/172/32 157/180/18
f 160/172/32 14/182/20 157/180/18
f 160/172/32 65/183/17 14/182/20
f 160/172/32 113/171/15 65/183/17
f 113/171/15 15/184/33 65/183/17
f 136/169/10 159/175/9 37/174/28
f 136/169/10 140/168/8 159/175/9
f 140/168/8 29/179/24 159/175/9
f 126/166/25 158/185/4 28/186/26
f 126/166/25 156/165/3 158/185/4
f 156/165/3 37/187/28 158/185/4
f 156/165/3 116/188/2 37/187/28
f 156/165/3 157/164/18 116/188/2
f 157/164/18 14/189/20 116/188/2
f 143/162/18 70/190/14 18/191/22
f 143/162/18 155/161/32 70/190/14
f 155/161/32 19/192/13 70/190/14
f 155/161/32 114/193/15 19/192/13
f 155/161/32 90/160/17 114/193/15
f 90/160/17 30/194/27 114/193/15
f 123/158/25 153/195/4 39/196/26
f 123/158/25 154/157/3 153/195/4
f 154/157/3 17/197/28 153/195/4
f 154/157/3 120/198/2 17/197/28
f 154/157/3 147/156/18 120/198/2
f 147/156/18 27/199/20 120/198/2
f 68/154/10 153/200/4 17/201/28
f 68/154/10 152/153/9 153/200/4
f 152/153/9 39/202/26 153/200/4
f 152/153/9 150/203/12 39/202/26
f 152/153/9 102/152/8 150/203/12
f 102/152/8 21/204/24 150/203/12
f 125/150/23 151/205/14 40/206/35
f 125/150/23 149/149/23 151/205/14
f 149/149/23 20/207/34 151/205/14
f 149/149/23 72/37/23 20/207/34
f 149/149/23 150/148/12 72/37/23
f 150/148/12 21/35/24 72/37/23
f 59/146/10 130/208/4 11/209/28
f 59/146/10 148/145/9 130/208/4
f 148/145/9 22/210/26 130/208/4
f 148/145/9 146/211/12 22/210/26
f 148/145/9 110/144/4 146/211/12
f 110/144/4 36/212/11 146/211/12
f 147/142/18 85/213/17 27/214/20
f 147/142/18 133/141/32 85/213/17
f 133/141/32 26/215/33 85/213/17
f 146/139/12 79/45/23 22/44/26
f 146/139/12 145/138/23 79/45/23
f 145/138/23 25/216/35 79/45/23
f 145/138/23 105/217/14 25/216/35
f 145/138/23 111/137/25 105/217/14
f 111/137/25 34/218/22 105/217/14
f 129/135/4 95/219/10 32/220/1
f 129/135/4 144/134/9 95/219/10
f 144/134/9 33/221/29 95/219/10
f 144/134/9 101/222/8 33/221/29
f 144/134/9 76/133/12 101/222/8
f 76/133/12 23/223/5 101/222/8
f 81/131/25 143/224/18 18/225/22
f 81/131/25 142/130/3 143/224/18
f 142/130/3 31/226/16 143/224/18
f 142/130/3 91/227/2 31/226/16
f 142/130/3 106/129/18 91/227/2
f 106/129/18 12/228/20 91/227/2
f 135/127/30 141/229/7 13/230/31
f 135/127/30 132/126/15 141/229/7
f 132/126/15 35/231/34 141/229/7
f 139/124/6 141/229/7 35/231/34
f 139/124/6 140/123/8 141/229/7
f 140/123/8 13/230/31 141/229/7
f 131/121/14 108/232/23 35/233/34
f 131/121/14 122/100/23 108/232/23
f 122/100/23 5/99/5 108/232/23
f 107/82/23 139/234/6 35/233/34
f 107/82/23 138/119/23 139/234/6
f 138/119/23 29/235/24 139/234/6
f 138/119/23 137/236/23 29/235/24
f 138/119/23 45/118/25 137/236/23
f 45/118/25 3/237/22 137/236/23
f 54/117/14 137/236/23 3/237/22
f 54/117/14 88/116/23 137/236/23
f 88/116/23 29/235/24 137/236/23
f 42/114/2 62/26/19 2/25/16
f 42/114/2 134/112/19 62/26/19
f 134/112/19 13/238/31 62/26/19
f 136/113/10 63/239/19 13/238/31
f 136/113/10 115/94/19 63/239/19
f 115/94/19 7/240/27 63/239/19
f 134/112/19 135/241/30 13/238/31
f 134/112/19 82/50/19 135/241/30
f 82/50/19 26/242/33 135/241/30
f 131/111/14 133/141/32 38/140/35
f 131/111/14 132/110/15 133/141/32
f 132/110/15 26/215/33 133/141/32
f 78/108/25 130/243/4 22/244/26
f 78/108/25 128/107/3 130/243/4
f 128/107/3 11/245/28 130/243/4
f 128/107/3 94/246/2 11/245/28
f 128/107/3 129/106/4 94/246/2
f 129/106/4 32/247/1 94/246/2
f 47/104/6 127/248/23 6/115/13
f 47/104/6 124/102/23 127/248/23
f 124/102/23 40/206/35 127/248/23
f 126/103/25 127/248/23 40/206/35
f 126/103/25 86/56/23 127/248/23
f 86/56/23 6/115/13 127/248/23
f 124/102/23 125/150/23 40/206/35
f 124/102/23 121/101/23 125/150/23
f 121/101/23 39/147/26 125/150/23
f 121/101/23 123/249/25 39/147/26
f 121/101/23 122/100/23 123/249/25
f 122/100/23 38/120/35 123/249/25
f 84/53/19 120/250/2 27/51/20
f 84/53/19 119/98/21 120/250/2
f 119/98/21 17/251/28 120/250/2
f 119/98/21 67/31/21 17/251/28
f 119/98/21 118/97/21 67/31/21
f 118/97/21 14/28/20 67/31/21
f 118/97/21 117/252/19 14/28/20
f 118/97/21 50/96/30 117/252/19
f 50/96/30 7/240/27 117/252/19
f 115/94/19 117/252/19 7/240/27
f 115/94/19 116/93/2 117/252/19
f 116/93/2 14/28/20 117/252/19
f 99/91/30 114/253/15 30/254/27
f 99/91/30 112/90/7 114/253/15
f 112/90/7 19/255/13 114/253/15
f 112/90/7 71/256/6 19/255/13
f 112/90/7 113/89/15 71/256/6
f 113/89/15 20/257/34 71/256/6
f 110/87/4 111/258/25 36/259/11
f 110/87/4 109/86/3 111/258/25
f 109/86/3 34/260/22 111/258/25
f 109/86/3 104/261/18 34/260/22
f 109/86/3 58/85/2 104/261/18
f 58/85/2 9/262/16 104/261/18
f 53/83/12 108/232/23 5/99/5
f 53/83/12 107/82/23 108/232/23
f 107/82/23 35/233/34 108/232/23
f 105/80/14 106/263/18 25/264/35
f 105/80/14 103/79/32 106/263/18
f 103/79/32 12/265/20 106/263/18
f 103/79/32 60/266/17 12/265/20
f 103/79/32 104/78/18 60/266/17
f 104/78/18 9/267/16 60/266/17
f 97/76/30 102/268/8 16/269/31
f 97/76/30 100/75/7 102/268/8
f 100/75/7 21/270/24 102/268/8
f 100/75/7 75/271/6 21/270/24
f 100/75/7 101/74/8 75/271/6
f 101/74/8 23/272/5 75/271/6
f 99/72/30 98/273/19 15/274/33
f 99/72/30 89/59/19 98/273/19
f 89/59/19 12/275/20 98/273/19
f 93/71/19 98/273/19 12/275/20
f 93/71/19 66/70/19 98/273/19
f 66/70/19 15/274/33 98/273/19
f 96/68/19 92/61/19 11/60/28
f 96/68/19 97/67/30 92/61/19
f 97/67/30 16/69/31 92/61/19
f 94/65/2 96/68/19 11/60/28
f 94/65/2 95/64/10 96/68/19
f 95/64/10 33/66/29 96/68/19
f 61/62/19 93/71/19 12/275/20
f 61/62/19 92/61/19 93/71/19
f 92/61/19 16/69/31 93/71/19
f 89/59/19 91/276/2 12/275/20
f 89/59/19 90/58/17 91/276/2
f 90/58/17 31/277/16 91/276/2
f 86/56/23 88/116/23 6/115/13
f 86/56/23 87/55/12 88/116/23
f 87/55/12 29/235/24 88/116/23
f 84/53/19 83/278/19 8/95/29
f 84/53/19 85/52/17 83/278/19
f 85/52/17 26/242/33 83/278/19
f 82/50/19 83/278/19 26/242/33
f 82/50/19 51/49/10 83/278/19
f 51/49/10 8/95/29 83/278/19
f 81/47/25 80/279/23 25/216/35
f 81/47/25 69/34/23 80/279/23
f 69/34/23 20/207/34 80/279/23
f 74/46/23 80/279/23 20/207/34
f 74/46/23 79/45/23 80/279/23
f 79/45/23 25/216/35 80/279/23
f 77/43/23 73/36/23 21/35/24
f 77/43/23 78/42/25 73/36/23
f 78/42/25 22/44/26 73/36/23
f 75/40/6 77/43/23 21/35/24
f 75/40/6 76/39/12 77/43/23
f 76/39/12 24/41/11 77/43/23
f 72/37/23 74/46/23 20/207/34
f 72/37/23 73/36/23 74/46/23
f 73/36/23 22/44/26 74/46/23
f 69/34/23 71/280/6 20/207/34
f 69/34/23 70/33/14 71/280/6
f 70/33/14 19/281/13 71/280/6
f 67/31/21 68/282/10 17/251/28
f 67/31/21 64/30/19 68/282/10
f 64/30/19 16/69/31 68/282/10
f 64/30/19 66/70/19 16/69/31
f 64/30/19 65/29/17 66/70/19
f 65/29/17 15/274/33 66/70/19
f 56/27/17 63/239/19 7/240/27
f 56/27/17 62/26/19 63/239/19
f 62/26/19 13/238/31 63/239/19
f 60/24/17 61/62/19 12/275/20
f 60/24/17 57/23/19 61/62/19
f 57/23/19 11/60/28 61/62/19
f 57/23/19 59/283/10 11/60/28
f 57/23/19 58/22/2 59/283/10
f 58/22/2 10/284/1 59/283/10
f 43/20/18 55/285/32 3/286/22
f 43/20/18 56/19/17 55/285/32
f 56/19/17 7/287/27 55/285/32
f 48/17/15 55/285/32 7/287/27
f 48/17/15 54/16/14 55/285/32
f 54/16/14 3/286/22 55/285/32
f 44/14/4 52/10/9 1/9/1
f 44/14/4 53/13/12 52/10/9
f 53/13/12 5/288/5 52/10/9
f 51/11/10 49/289/8 8/290/29
f 51/11/10 52/10/9 49/289/8
f 52/10/9 5/288/5 49/289/8
f 49/8/8 50/291/30 8/292/29
f 49/8/8 46/7/7 50/291/30
f 46/7/7 7/293/27 50/291/30
f 46/7/7 48/294/15 7/293/27
f 46/7/7 47/6/6 48/294/15
f 47/6/6 6/295/13 48/294/15
f 44/4/4 45/296/25 4/297/11
f 44/4/4 41/3/3 45/296/25
f 41/3/3 3/298/22 45/296/25
f 41/3/3 43/299/18 3/298/22
f 41/3/3 42/2/2 43/299/18
f 42/2/2 2/300/16 43/299/18
