# Blender v2.82 (sub 7) OBJ File: ''
# www.blender.org
mtllib pizzabox.mtl
o obj_0
v 23.000000 7.339121 28.916040
v 23.000000 0.339601 28.998013
v 23.000000 -0.093683 -7.999452
v 23.000000 6.905837 -8.081425
v -17.000000 6.905837 -8.081425
v -17.000000 -0.093683 -7.999452
v -17.000000 0.339601 28.998013
v -17.000000 7.339121 28.916040
v 23.000000 3.622719 10.458294
v 23.000000 3.839361 28.957026
v 23.000000 0.122959 10.499280
v 23.000000 7.122479 10.417307
v 23.000000 3.406077 -8.040438
v -17.000000 3.622719 10.458294
v -17.000000 3.406077 -8.040438
v -17.000000 0.122959 10.499280
v -17.000000 7.122479 10.417307
v -17.000000 3.839361 28.957026
v 3.000000 0.122959 10.499280
v 3.000000 0.339601 28.998013
v 3.000000 -0.093683 -7.999452
v 3.000000 3.406077 -8.040438
v 3.000000 6.905837 -8.081425
v 3.000000 7.122479 10.417307
v 3.000000 7.339121 28.916040
v 3.000000 3.839361 28.957026
vt 0.189189 0.500000
vt 0.236487 0.500000
vt 0.236487 0.731250
vt 0.189189 0.731250
vt 0.283784 0.500000
vt 0.331081 0.500000
vt 0.331082 0.731250
vt 0.283784 0.731250
vt 0.500000 0.500000
vt 0.500000 0.250000
vt 0.750000 0.250000
vt 0.750000 0.500000
vt 0.000000 0.500000
vt 0.047297 0.500000
vt 0.047297 0.750000
vt 0.000000 0.750000
vt 0.500000 0.000000
vt 0.500000 0.250000
vt 0.250000 0.250000
vt 0.250000 0.000000
vt 0.189189 1.000000
vt 0.141892 1.000000
vt 0.141892 0.750000
vt 0.189189 0.750000
vt 0.141892 0.500000
vt 0.094595 0.500000
vt 0.094595 0.750000
vt 0.094595 1.000000
vt 0.000000 0.250000
vt 0.000000 0.000000
vt 0.000000 0.500000
vt 0.250000 0.500000
vt 0.500000 0.500000
vt 0.047297 1.000000
vt 0.000000 1.000000
vt 0.094595 1.000000
vt 0.094595 0.750000
vt 0.094595 0.500000
vt 1.000000 0.250000
vt 1.000000 0.500000
vt 1.000000 0.000000
vt 0.750000 0.000000
vt 0.500000 0.000000
vt 0.331082 0.962500
vt 0.283784 0.962500
vt 0.378379 0.962500
vt 0.378379 0.731250
vt 0.378379 0.500000
vt 0.236487 0.962500
vt 0.189190 0.962500
vt 0.283784 0.962500
vt 0.283784 0.731250
vt 0.283784 0.500000
vn 0.5773 0.5841 0.5705
vn 0.7071 0.0083 0.7071
vn 1.0000 0.0000 0.0000
vn 0.7071 0.7071 -0.0083
vn -0.5773 0.5705 -0.5841
vn -0.7071 -0.0083 -0.7071
vn -1.0000 0.0000 0.0000
vn -0.7071 0.7071 -0.0083
vn 0.5773 -0.5705 0.5841
vn 0.0000 -0.6988 0.7153
vn 0.0000 -0.9999 0.0117
vn 0.7071 -0.7071 0.0083
vn 0.5773 0.5705 -0.5841
vn 0.7071 -0.0083 -0.7071
vn 0.0000 -0.0117 -0.9999
vn 0.0000 0.6988 -0.7153
vn 0.0000 0.9999 -0.0117
vn -0.5773 0.5841 0.5705
vn -0.7071 0.0083 0.7071
vn 0.0000 0.0117 0.9999
vn 0.0000 0.7153 0.6988
vn -0.5773 -0.5705 0.5841
vn -0.5773 -0.5841 -0.5705
vn 0.0000 -0.7153 -0.6988
vn 0.5773 -0.5841 -0.5705
vn -0.7071 -0.7071 0.0083
usemtl color_15277357
s 1
f 1/1/1 10/2/2 9/3/3
f 1/1/1 9/3/3 12/4/4
f 5/5/5 15/6/6 14/7/7
f 5/5/5 14/7/7 17/8/8
f 2/9/9 20/10/10 19/11/11
f 2/9/9 19/11/11 11/12/12
f 4/13/13 13/14/14 22/15/15
f 4/13/13 22/15/15 23/16/16
f 4/17/13 23/18/16 24/19/17
f 4/17/13 24/19/17 12/20/4
f 8/21/18 18/22/19 26/23/20
f 8/21/18 26/23/20 25/24/21
f 25/24/21 10/25/2 1/1/1
f 25/24/21 26/23/20 10/25/2
f 26/23/20 2/26/9 10/25/2
f 26/23/20 20/27/10 2/26/9
f 26/23/20 18/22/19 20/27/10
f 18/22/19 7/28/22 20/27/10
f 12/20/4 25/29/21 1/30/1
f 12/20/4 24/19/17 25/29/21
f 24/19/17 8/31/18 25/29/21
f 24/19/17 17/32/8 8/31/18
f 24/19/17 23/18/16 17/32/8
f 23/18/16 5/33/5 17/32/8
f 23/16/16 15/34/6 5/35/5
f 23/16/16 22/15/15 15/34/6
f 22/15/15 6/36/23 15/34/6
f 22/15/15 21/37/24 6/36/23
f 22/15/15 13/14/14 21/37/24
f 13/14/14 3/38/25 21/37/24
f 11/12/12 21/39/24 3/40/25
f 11/12/12 19/11/11 21/39/24
f 19/11/11 6/41/23 21/39/24
f 19/11/11 16/42/26 6/41/23
f 19/11/11 20/10/10 16/42/26
f 20/10/10 7/43/22 16/42/26
f 17/8/8 18/44/19 8/45/18
f 17/8/8 14/7/7 18/44/19
f 14/7/7 7/46/22 18/44/19
f 14/7/7 16/47/26 7/46/22
f 14/7/7 15/6/6 16/47/26
f 15/6/6 6/48/23 16/47/26
f 12/4/4 13/49/14 4/50/13
f 12/4/4 9/3/3 13/49/14
f 9/3/3 3/51/25 13/49/14
f 9/3/3 11/52/12 3/51/25
f 9/3/3 10/2/2 11/52/12
f 10/2/2 2/53/9 11/52/12
